REM DIRINDEX 1\2,1\3
REM DIRNAME folder01,folder02,folder03
TITLE ""
FILE "3101-3120.mp3" MP3
  TRACK 01 AUDIO
    TITLE "0:"
    INDEX 01 00:00:00
  TRACK 02 AUDIO
    TITLE "2:cjc039_5201"
    INDEX 01 00:00:27
  TRACK 03 AUDIO
    TITLE "0:"
    INDEX 01 00:01:36
  TRACK 04 AUDIO
    TITLE "3:cjc039_5202"
    INDEX 01 00:02:10
  TRACK 05 AUDIO
    TITLE "0:"
    INDEX 01 00:05:56
  TRACK 06 AUDIO
    TITLE "2:cjc039_5203"
    INDEX 01 00:07:33
  TRACK 07 AUDIO
    TITLE "0:"
    INDEX 01 00:08:48
  TRACK 08 AUDIO
    TITLE "3:cjc039_5204"
    INDEX 01 00:09:28
  TRACK 09 AUDIO
    TITLE "0:"
    INDEX 01 00:13:08
  TRACK 10 AUDIO
    TITLE "2:cjc039_5205"
    INDEX 01 00:14:58
  TRACK 11 AUDIO
    TITLE "0:"
    INDEX 01 00:15:68
  TRACK 12 AUDIO
    TITLE "3:cjc039_5206"
    INDEX 01 00:16:49
  TRACK 13 AUDIO
    TITLE "0:"
    INDEX 01 00:20:06
  TRACK 14 AUDIO
    TITLE "2:cjc039_5207"
    INDEX 01 00:21:47
  TRACK 15 AUDIO
    TITLE "0:"
    INDEX 01 00:22:66
  TRACK 16 AUDIO
    TITLE "3:cjc039_5208"
    INDEX 01 00:23:44
  TRACK 17 AUDIO
    TITLE "0:"
    INDEX 01 00:27:08
  TRACK 18 AUDIO
    TITLE "2:cjc039_5209"
    INDEX 01 00:28:60
  TRACK 19 AUDIO
    TITLE "0:"
    INDEX 01 00:29:56
  TRACK 20 AUDIO
    TITLE "3:cjc039_5210"
    INDEX 01 00:30:32
  TRACK 21 AUDIO
    TITLE "0:"
    INDEX 01 00:33:28
  TRACK 22 AUDIO
    TITLE "2:cjc039_5211"
    INDEX 01 00:35:02
  TRACK 23 AUDIO
    TITLE "0:"
    INDEX 01 00:36:25
  TRACK 24 AUDIO
    TITLE "3:cjc039_5212"
    INDEX 01 00:36:74
  TRACK 25 AUDIO
    TITLE "0:"
    INDEX 01 00:40:48
  TRACK 26 AUDIO
    TITLE "2:cjc039_5213"
    INDEX 01 00:42:29
  TRACK 27 AUDIO
    TITLE "0:"
    INDEX 01 00:43:33
  TRACK 28 AUDIO
    TITLE "3:cjc039_5214"
    INDEX 01 00:44:09
  TRACK 29 AUDIO
    TITLE "0:"
    INDEX 01 00:47:50
  TRACK 30 AUDIO
    TITLE "2:cjc039_5215"
    INDEX 01 00:49:21
  TRACK 31 AUDIO
    TITLE "0:"
    INDEX 01 00:50:50
  TRACK 32 AUDIO
    TITLE "3:cjc039_5216"
    INDEX 01 00:51:20
  TRACK 33 AUDIO
    TITLE "0:"
    INDEX 01 00:54:38
  TRACK 34 AUDIO
    TITLE "2:cjc039_5217"
    INDEX 01 00:56:14
  TRACK 35 AUDIO
    TITLE "0:"
    INDEX 01 00:57:21
  TRACK 36 AUDIO
    TITLE "3:cjc039_5218"
    INDEX 01 00:57:70
  TRACK 37 AUDIO
    TITLE "0:"
    INDEX 01 01:01:70
  TRACK 38 AUDIO
    TITLE "2:cjc039_5219"
    INDEX 01 01:03:47
  TRACK 39 AUDIO
    TITLE "0:"
    INDEX 01 01:05:07
  TRACK 40 AUDIO
    TITLE "3:cjc039_5220"
    INDEX 01 01:05:60
  TRACK 41 AUDIO
    TITLE "0:"
    INDEX 01 01:09:42
  TRACK 42 AUDIO
    TITLE "2:cjc039_5221"
    INDEX 01 01:11:23
  TRACK 43 AUDIO
    TITLE "0:"
    INDEX 01 01:12:32
  TRACK 44 AUDIO
    TITLE "3:cjc039_5222"
    INDEX 01 01:13:10
  TRACK 45 AUDIO
    TITLE "0:"
    INDEX 01 01:17:14
  TRACK 46 AUDIO
    TITLE "2:cjc039_5223"
    INDEX 01 01:18:64
  TRACK 47 AUDIO
    TITLE "0:"
    INDEX 01 01:20:02
  TRACK 48 AUDIO
    TITLE "3:cjc039_5224"
    INDEX 01 01:20:51
  TRACK 49 AUDIO
    TITLE "0:"
    INDEX 01 01:24:41
  TRACK 50 AUDIO
    TITLE "2:cjc039_5225"
    INDEX 01 01:26:15
  TRACK 51 AUDIO
    TITLE "0:"
    INDEX 01 01:27:53
  TRACK 52 AUDIO
    TITLE "3:cjc039_5226"
    INDEX 01 01:28:25
  TRACK 53 AUDIO
    TITLE "0:"
    INDEX 01 01:32:47
  TRACK 54 AUDIO
    TITLE "2:cjc039_5227"
    INDEX 01 01:34:22
  TRACK 55 AUDIO
    TITLE "0:"
    INDEX 01 01:35:53
  TRACK 56 AUDIO
    TITLE "3:cjc039_5228"
    INDEX 01 01:36:35
  TRACK 57 AUDIO
    TITLE "0:"
    INDEX 01 01:39:63
  TRACK 58 AUDIO
    TITLE "2:cjc039_5229"
    INDEX 01 01:41:42
  TRACK 59 AUDIO
    TITLE "0:"
    INDEX 01 01:42:53
  TRACK 60 AUDIO
    TITLE "3:cjc039_5230"
    INDEX 01 01:43:29
  TRACK 61 AUDIO
    TITLE "0:"
    INDEX 01 01:46:55
  TRACK 62 AUDIO
    TITLE "2:cjc039_5231"
    INDEX 01 01:48:30
  TRACK 63 AUDIO
    TITLE "0:"
    INDEX 01 01:49:47
  TRACK 64 AUDIO
    TITLE "3:cjc039_5232"
    INDEX 01 01:50:23
  TRACK 65 AUDIO
    TITLE "0:"
    INDEX 01 01:53:63
  TRACK 66 AUDIO
    TITLE "2:cjc039_5233"
    INDEX 01 01:55:38
  TRACK 67 AUDIO
    TITLE "0:"
    INDEX 01 01:56:57
  TRACK 68 AUDIO
    TITLE "3:cjc039_5234"
    INDEX 01 01:57:31
  TRACK 69 AUDIO
    TITLE "0:"
    INDEX 01 02:01:05
  TRACK 70 AUDIO
    TITLE "2:cjc039_5235"
    INDEX 01 02:02:54
  TRACK 71 AUDIO
    TITLE "0:"
    INDEX 01 02:04:02
  TRACK 72 AUDIO
    TITLE "3:cjc039_5236"
    INDEX 01 02:04:57
  TRACK 73 AUDIO
    TITLE "0:"
    INDEX 01 02:08:17
  TRACK 74 AUDIO
    TITLE "2:cjc039_5237"
    INDEX 01 02:09:64
  TRACK 75 AUDIO
    TITLE "0:"
    INDEX 01 02:11:08
  TRACK 76 AUDIO
    TITLE "3:cjc039_5238"
    INDEX 01 02:11:57
  TRACK 77 AUDIO
    TITLE "0:"
    INDEX 01 02:16:03
  TRACK 78 AUDIO
    TITLE "2:cjc039_5239"
    INDEX 01 02:17:59
  TRACK 79 AUDIO
    TITLE "0:"
    INDEX 01 02:19:21
  TRACK 80 AUDIO
    TITLE "3:cjc039_5240"
    INDEX 01 02:19:74
  TRACK 81 AUDIO
    TITLE "0:"
    INDEX 01 02:24:28
